<?xml version="1.0" encoding="utf-8"?>
<!-- Generator: Adobe Illustrator 27.4.1, SVG Export Plug-In . SVG Version: 6.00 Build 0)  -->
<svg version="1.1" id="Layer_2_00000061437276987160766700000006687366069684552127_"
	 xmlns="http://www.w3.org/2000/svg" xmlns:xlink="http://www.w3.org/1999/xlink" x="0px" y="0px" viewBox="0 0 553.9 571"
	 style="enable-background:new 0 0 553.9 571;" xml:space="preserve">
<style type="text/css">
	.st0{fill:#303030;}
</style>
<g id="Logo_02">
	<g>
		<g>
			<g>
				<path class="st0" d="M47.5,475.1h-38c-6.3,0-9.5-3.1-9.5-9.5v-28.5c0-2.7,0.8-5,2.4-6.8s4-2.7,7-2.7h36.5v9.5H9.5v28.5h28.4V456
					H19.1v-9.3h28.4L47.5,475.1L47.5,475.1z"/>
				<path class="st0" d="M114.3,475.1H100l-22.2-19h-1.4v19h-9.5v-47.5h36.3c1.3,0,2.6,0.2,3.7,0.8c1.2,0.5,2.2,1.2,3.1,2
					c0.9,0.9,1.6,1.9,2.1,3s0.8,2.4,0.8,3.7v9.5c0,6.3-3.2,9.5-9.6,9.5H91.5L114.3,475.1L114.3,475.1z M103.1,447v-9.9H76.3v9.9
					H103.1z"/>
				<path class="st0" d="M178.6,451.4c0,3.3-0.7,6.5-2,9.5c-1.3,3-3.1,5.6-5.3,7.8s-4.8,4-7.8,5.3c-3,1.3-6.1,1.9-9.5,1.9
					s-6.6-0.6-9.5-1.9c-3-1.3-5.6-3-7.8-5.3s-4-4.8-5.3-7.8c-1.3-3-1.9-6.1-1.9-9.5s0.6-6.6,1.9-9.5c1.3-3,3.1-5.6,5.3-7.8
					c2.2-2.2,4.9-4,7.8-5.3c3-1.3,6.1-2,9.5-2s6.5,0.7,9.5,2c3,1.3,5.6,3.1,7.8,5.3c2.2,2.2,4,4.8,5.3,7.8
					C177.9,444.9,178.6,448.1,178.6,451.4L178.6,451.4z M169.1,451.4c0-2-0.4-4-1.2-5.8s-1.9-3.5-3.2-4.8c-1.4-1.4-2.9-2.5-4.8-3.3
					s-3.8-1.2-5.8-1.2s-4,0.4-5.9,1.2s-3.4,1.9-4.8,3.2s-2.4,3-3.2,4.8c-0.8,1.8-1.2,3.8-1.2,5.9s0.4,4,1.2,5.8
					c0.8,1.8,1.9,3.4,3.2,4.8c1.4,1.4,3,2.5,4.8,3.2c1.8,0.8,3.8,1.2,5.9,1.2s3.9-0.4,5.8-1.2s3.4-1.9,4.8-3.3
					c1.4-1.4,2.4-3,3.2-4.8C168.7,455.3,169.1,453.4,169.1,451.4L169.1,451.4z"/>
				<path class="st0" d="M238.6,437.1h-19.1v38h-9.4v-38h-19.1v-9.5h47.5L238.6,437.1L238.6,437.1z"/>
				<path class="st0" d="M301.5,475.1h-9.5v-19h-26.8v19h-9.6v-47.5h9.6v19.1h26.8v-19.1h9.5V475.1z"/>
				<path class="st0" d="M368.9,451.4c0,3.3-0.7,6.5-2,9.5c-1.3,3-3.1,5.6-5.3,7.8s-4.8,4-7.8,5.3c-3,1.3-6.1,1.9-9.5,1.9
					s-6.6-0.6-9.5-1.9c-3-1.3-5.6-3-7.8-5.3s-4-4.8-5.3-7.8c-1.3-3-1.9-6.1-1.9-9.5s0.6-6.6,1.9-9.5c1.3-3,3-5.6,5.3-7.8
					c2.2-2.2,4.9-4,7.8-5.3c3-1.3,6.1-2,9.5-2s6.5,0.7,9.5,2c3,1.3,5.6,3.1,7.8,5.3s4,4.8,5.3,7.8
					C368.2,444.9,368.9,448.1,368.9,451.4L368.9,451.4z M359.4,451.4c0-2-0.4-4-1.2-5.8s-1.9-3.5-3.2-4.8c-1.4-1.4-3-2.5-4.8-3.3
					c-1.8-0.8-3.8-1.2-5.8-1.2s-4,0.4-5.9,1.2s-3.4,1.9-4.8,3.2s-2.5,3-3.2,4.8c-0.8,1.8-1.2,3.8-1.2,5.9s0.4,4,1.2,5.8
					c0.8,1.8,1.9,3.4,3.2,4.8c1.4,1.4,3,2.5,4.8,3.2c1.8,0.8,3.8,1.2,5.9,1.2s3.9-0.4,5.8-1.2s3.4-1.9,4.8-3.3
					c1.4-1.4,2.5-3,3.2-4.8C358.9,455.3,359.3,453.4,359.4,451.4L359.4,451.4z"/>
				<path class="st0" d="M434.2,465.6c0,2.8-0.9,5.1-2.6,6.9s-4,2.6-6.9,2.6h-28.5c-1.4,0-2.6-0.2-3.8-0.7s-2.2-1.1-3-2
					c-0.8-0.8-1.5-1.8-1.9-3c-0.5-1.2-0.7-2.4-0.7-3.8v-38h9.4v38h28.5v-38h9.5L434.2,465.6L434.2,465.6z"/>
				<path class="st0" d="M497,465.6c0,3.1-0.8,5.4-2.5,7c-1.7,1.6-4,2.4-7.1,2.4h-34v-9.5h34v-9.5h-25.2c-2.8,0-5.1-0.8-6.9-2.4
					c-1.7-1.6-2.6-4-2.6-7.1v-9.5c0-3,0.9-5.4,2.6-7c1.7-1.7,4-2.5,6.9-2.5h32.5v9.5h-32.5v9.5h25.2c2.9,0,5.3,0.9,7,2.6
					c1.7,1.7,2.6,4,2.6,6.9L497,465.6L497,465.6z"/>
				<path class="st0" d="M553.9,475.1h-38v-47.5h37.9v9.5h-28.5v9.5h28.3v9.5h-28.3v9.5h28.5L553.9,475.1L553.9,475.1z"/>
			</g>
			<g>
				<path class="st0" d="M127.8,515.6h-19.5v13.1h-6.5V496h26.2v6.6h-19.7v6.6h19.5L127.8,515.6L127.8,515.6z"/>
				<path class="st0" d="M171.9,528.7h-6.6v-13.1h-19.6v13.1h-6.5v-26.2c0-2,0.6-3.7,1.8-4.8s2.8-1.8,4.7-1.8h19.6
					c0.9,0,1.8,0.2,2.6,0.5c0.8,0.3,1.5,0.8,2.1,1.4c0.6,0.6,1,1.3,1.4,2.1c0.3,0.8,0.5,1.7,0.5,2.6L171.9,528.7L171.9,528.7z
					 M165.3,509.1v-6.6h-19.6v6.6H165.3z"/>
				<path class="st0" d="M217.8,521.8c0,2.3-0.5,4-1.5,5.2c-0.9,1.2-2.6,1.7-5,1.7h-26.1v-32.8h26.1c2.3,0,3.9,0.5,4.9,1.6
					c1,1.1,1.5,2.7,1.5,4.9v5.5c0,1.4-0.2,2.4-0.6,3c-0.4,0.7-1.2,1.2-2.3,1.5c1.1,0.2,1.9,0.7,2.4,1.4c0.5,0.7,0.7,1.7,0.7,3.1
					L217.8,521.8L217.8,521.8z M211.4,509.1v-6.6h-19.6v6.6H211.4z M211.4,522.2v-7h-19.6v7H211.4z"/>
				<path class="st0" d="M280,496l-12.5,32.8h-6.8l-6.9-20.9l-7.1,20.9h-7.1l-12-32.8h7.5l8.2,23.8l8-23.8h5.3l7.5,23.8l8.7-23.8
					L280,496L280,496z"/>
				<path class="st0" d="M321.5,512.4c0,2.3-0.5,4.5-1.4,6.5c-0.9,2-2.1,3.8-3.6,5.4c-1.5,1.5-3.3,2.8-5.4,3.7s-4.2,1.3-6.5,1.3
					s-4.5-0.4-6.6-1.3c-2-0.9-3.9-2.1-5.4-3.6c-1.5-1.5-2.8-3.3-3.6-5.4c-0.9-2-1.3-4.2-1.3-6.6s0.4-4.5,1.3-6.6
					c0.9-2,2.1-3.8,3.6-5.4s3.4-2.8,5.4-3.6s4.2-1.4,6.6-1.4s4.5,0.5,6.5,1.4c2,0.9,3.8,2.1,5.4,3.6s2.8,3.3,3.6,5.4
					S321.5,510.1,321.5,512.4L321.5,512.4z M315,512.4c0-1.4-0.3-2.7-0.8-4s-1.3-2.4-2.2-3.3s-2-1.7-3.3-2.3c-1.2-0.6-2.6-0.8-4-0.8
					s-2.8,0.3-4,0.8c-1.3,0.6-2.4,1.3-3.3,2.2s-1.7,2-2.2,3.3c-0.6,1.3-0.8,2.6-0.8,4s0.3,2.8,0.8,4c0.6,1.2,1.3,2.3,2.2,3.3
					s2,1.7,3.3,2.2c1.3,0.6,2.6,0.8,4,0.8s2.7-0.3,4-0.8c1.2-0.6,2.4-1.3,3.3-2.3s1.7-2.1,2.2-3.3
					C314.7,515.1,314.9,513.8,315,512.4L315,512.4z"/>
				<path class="st0" d="M366.9,528.7h-9.9l-15.3-13.1h-1v13.1h-6.6V496h25c0.9,0,1.8,0.2,2.6,0.5c0.8,0.4,1.5,0.8,2.1,1.4
					s1.1,1.3,1.4,2.1c0.4,0.8,0.5,1.6,0.5,2.6v6.6c0,4.4-2.2,6.5-6.6,6.5h-8L366.9,528.7L366.9,528.7z M359.2,509.4v-6.8h-18.5v6.8
					H359.2z"/>
				<path class="st0" d="M411.1,528.7h-10l-16.3-14.3v14.3h-6.5V496h6.5v13.5l15.9-13.5h9.9l-18.9,15.9L411.1,528.7L411.1,528.7z"/>
				<path class="st0" d="M452.2,522.2c0,2.1-0.6,3.7-1.7,4.8s-2.8,1.7-4.9,1.7h-23.4v-6.5h23.4v-6.6h-17.4c-2,0-3.5-0.5-4.7-1.6
					c-1.2-1.1-1.8-2.7-1.8-4.9v-6.6c0-2.1,0.6-3.7,1.8-4.9s2.8-1.7,4.8-1.7h22.4v6.6h-22.4v6.6h17.4c2,0,3.6,0.6,4.8,1.8
					c1.2,1.2,1.8,2.8,1.8,4.7L452.2,522.2L452.2,522.2z"/>
			</g>
			<g>
				<path class="st0" d="M247.9,571h-17.8v-22.2h4.5v17.8h13.3V571z"/>
				<path class="st0" d="M284.2,571h-17.8v-22.2h4.5v17.8h13.3V571z"/>
				<path class="st0" d="M323.8,571h-17c-3,0-4.4-1.5-4.4-4.4v-13.4c0-1.2,0.4-2.3,1.1-3.2c0.7-0.9,1.9-1.3,3.3-1.3h17v4.5h-17v13.4
					h17V571L323.8,571z"/>
			</g>
		</g>
		<g>
			<polygon class="st0" points="372.8,388.4 369.8,337 381.1,317.5 382.3,345.1 395.2,338 408.7,358.9 412.3,338.9 451.8,352.1 
				420.7,324.4 436.3,311.3 411.5,310 411.2,295.3 386.7,307.9 397,290 443.1,267 428.8,294.4 478.4,300.6 448.1,329.8 494.3,377.8 
				429.7,361.5 419.4,402.3 389.4,362.3 			"/>
			<polygon class="st0" points="361.3,222.7 346.2,247.5 370.5,285.6 345.1,329.6 320.9,291.8 291.8,342.2 337.8,342.2 312.1,386.5 
				216.2,386.5 361.1,137.7 408.4,220.2 385.2,259.8 			"/>
			<polygon class="st0" points="269.1,156 296.2,109.2 282,89.6 135.1,342.2 160.9,342.2 227.8,227.1 222.2,217.2 248.4,172.3 
				281.1,222.5 185.7,386.5 59.6,386.5 281.9,0 345.4,111.1 294.2,199.9 269.5,156.8 			"/>
		</g>
	</g>
</g>
</svg>
